<svg width="32" height="32" viewBox="0 0 32 32" fill="none" xmlns="http://www.w3.org/2000/svg">
<path fill-rule="evenodd" clip-rule="evenodd" d="M9.3353 12.6239L6.12158 7.22778H8.99426L10.8681 10.3511H25.8468L21.657 18.4451H12.7947L9.3353 12.6239ZM12.4544 12.9539L14.3017 15.8423H20.0484L21.6354 12.9539H12.4544Z" fill="white"/>
<path d="M16.1677 22.4794C16.1677 23.5575 15.2937 24.4315 14.2156 24.4315C13.1375 24.4315 12.2635 23.5575 12.2635 22.4794C12.2635 21.4013 13.1375 20.5273 14.2156 20.5273C15.2937 20.5273 16.1677 21.4013 16.1677 22.4794Z" fill="white"/>
<path d="M19.4211 24.4315C20.4992 24.4315 21.3732 23.5575 21.3732 22.4794C21.3732 21.4013 20.4992 20.5273 19.4211 20.5273C18.343 20.5273 17.4691 21.4013 17.4691 22.4794C17.4691 23.5575 18.343 24.4315 19.4211 24.4315Z" fill="white"/>
</svg>
