<svg width="0" height="0" style="position:absolute;">
    <symbol viewBox="0 0 165 67" id="baikal">
        <path fill-rule="evenodd" clip-rule="evenodd"
            d="M49.1377 42.6794C52.3238 42.913 53.6601 41.6329 54.5757 39.0914L57.9954 26.029C58.1262 25.5431 58.2851 25.3376 59.0606 25.2441L61.4713 25.0759L57.603 39.9884C56.8087 42.0533 55.0055 43.8941 53.2863 44.2491C51.6792 44.4267 49.8478 43.8754 49.1377 42.6794Z"
            fill="white" />
        <path fill-rule="evenodd" clip-rule="evenodd"
            d="M53.118 39.5674C51.0997 38.633 50.9877 37.4745 51.0997 35.587C50.6513 29.1772 59.7334 15.4793 64.7228 15.5168C68.7905 15.7985 65.8201 26.2168 60.1257 34.2415L61.5272 36.54C61.9571 37.0913 62.1065 38.0069 61.4712 38.7825L59.8454 40.2962C60.7517 41.679 63.0876 42.0527 63.8257 41.9219C65.6478 41.5295 65.928 40.1 65.844 39.3992C65.788 38.3434 65.4796 37.3715 65.0031 36.2877L66.685 34.3536L66.741 38.7825C67.5259 42.5761 70.3291 40.1747 72.2912 37.6893C74.3842 42.0622 76.6454 36.9886 77.9814 36.5401C80.719 41.2679 81.9431 36.1288 83.8399 35.4748L83.3634 37.5771L85.69 37.3249C86.6337 36.9979 86.6804 36.2784 86.7551 35.7552L87.2036 33.7369C87.3158 33.1669 87.7641 33.0455 88.2127 33.793C89.2779 35.7366 91.1841 38.6891 92.4174 38.6143C93.8003 38.3714 94.4543 34.5966 95.4727 33.1764C97.9487 37.4745 99.2757 32.4102 101.135 31.971C103.349 36.8672 105.171 30.4947 107.442 30.1491C109.114 34.1575 110.394 32.027 111.03 31.8308L111.234 31.8987C99.4503 44.13 89.1709 39.6349 84.8212 40.5361C83.4944 40.4239 82.6161 41.3209 82.3545 42.0497L81.4575 43.9558L60.7706 44.6846C49.5022 45.32 47.3718 51.3372 47.484 55C50.3431 48.665 69.7965 49.562 77.7574 49.6181C79.6635 49.7489 79.8878 48.1418 80.4484 47.3196C80.8967 46.2171 81.6818 44.666 82.2985 44.5165C102.864 45.5431 108.849 36.3814 112.522 30.8597L113.691 29.1553C113.805 28.9996 113.917 28.8498 114.029 28.707C113.964 28.7883 113.9 28.8656 113.835 28.9458L114.394 28.1309L114.562 27.7945L112.263 29.1961C111.777 29.327 111.236 28.9251 111.142 27.9066C110.877 25.5105 114.844 22.0257 116.853 19.2561C119.216 15.9982 117.931 12.6965 116.58 13.0223C111.217 14.7333 109.09 21.8459 107.61 28.9158C107.199 29.3082 106.395 30.6818 105.031 30.2613C105.33 27.6451 106.078 24.7485 107.106 22.0762C105.984 21.9452 104.947 22.179 103.91 22.6928L103.125 24.2345C102.564 22.3844 98.416 21.7958 96.0053 28.5233L94.0993 33.625C93.959 34.1576 93.3424 34.8303 92.4174 34.8023C91.2588 34.6527 90.0442 33.8585 89.4462 32.3356C93.6134 31.9432 96.8556 26.1967 95.3326 24.2625C93.7909 22.4406 91.6325 25.8043 89.7824 25.9444L91.3942 18.8946C90.2916 18.9788 88.9509 19.0207 88.3809 19.8897L84.5686 33.5689C84.1575 34.1575 81.3077 37.0727 82.3262 33.5689L84.1762 26.505L81.4292 27.0096C80.7004 27.2712 80.5322 27.7571 80.42 28.299L78.7943 34.7461C78.2057 35.4843 77.3367 36.0543 76.2714 36.0356L78.2897 27.8506C77.2619 27.8226 76.1781 28.0468 75.1223 28.5233L74.4215 30.1212C73.7674 29.5232 72.5807 27.972 70.5531 29.5325L64.4424 35.5311C63.5548 35.3067 62.8073 34.8023 62.4523 33.8492C75.1316 21.3566 69.5908 13.7137 66.3485 14.0594C55.4847 15.5763 47.2489 28.4164 47.0071 34.634C46.8016 39.4741 51.109 40.0254 53.118 39.5675L53.118 39.5674ZM70.8619 37.3963C69.3483 35.8452 71.5347 31.3229 73.0483 31.2295C74.9545 31.323 71.9831 38.3119 70.8619 37.3963ZM61.1632 40.3119L62.3404 39.1066C62.4619 39.6392 62.4993 40.0597 62.2564 40.5361C61.6677 40.6015 61.3874 40.5549 61.1632 40.3119ZM88.5773 31.2857C88.2505 29.3329 89.3249 27.4362 91.0441 27.2493C92.997 28.0341 89.764 31.7062 88.5773 31.2857ZM101.948 25.0629C101.468 25.0629 99.958 26.0393 99.4534 28.2584C98.9489 30.4775 99.0015 31.4539 99.4814 31.4539C99.9613 31.4539 100.967 31.2064 101.864 28.819C102.761 26.4316 102.428 25.0629 101.948 25.0629V25.0629ZM112.908 22.7082C113.623 19.9986 115.197 17.233 117.225 14.7475C118.645 15.551 115.188 20.6713 112.908 22.7082Z"
            fill="white" />
        <path fill-rule="evenodd" clip-rule="evenodd"
            d="M83.7985 19.8904C84.7042 19.8904 85.4383 20.7627 85.4383 21.8386C85.4383 22.9145 84.7042 23.7868 83.7985 23.7868C82.8928 23.7868 82.1587 22.9145 82.1587 21.8386C82.1587 20.7627 82.8928 19.8904 83.7985 19.8904Z"
            fill="white" />
    </symbol>
    <symbol viewBox="0 0 165 67" id="baltica">
        <path fill-rule="evenodd" clip-rule="evenodd"
            d="M63.2325 37.4381C63.1691 38.4665 62.8695 38.9891 61.844 38.9891L61.6866 39.4799H66.4664L66.6079 38.9891C65.6297 38.9891 65.6771 38.2367 65.7245 37.531L66.5131 27.2777C65.8666 27.5387 64.8251 27.9685 64.0051 28.0458L57.68 37.2849C57.1749 38.0218 56.4971 38.8359 55.535 38.9891L55.3775 39.4799H59.0211L59.1632 38.9891C57.68 38.9891 58.3112 37.9452 58.7689 37.2395L59.5735 36.0416H63.3279L63.2325 37.4381ZM63.7529 30.3622L63.3746 35.1665H60.204L63.4693 30.4232L63.7529 30.3622ZM77.1757 37.5303C76.8448 38.6807 76.4031 39.0339 75.1407 39.0339L74.9833 39.4793H80.7092L80.8667 39.0339C79.589 39.0644 79.4155 38.6197 79.7151 37.5303L82.0963 29.4565C82.4279 28.3054 82.8536 27.9529 84.1153 27.9529L84.21 27.5231H74.8558L74.6984 27.9529C76.2129 27.9529 75.834 29.0267 75.471 29.9636L72.3478 37.8218C72.111 38.4048 71.3223 38.9119 70.8646 38.8651C70.3916 38.8346 69.9499 38.4503 69.9339 37.99C69.9025 37.3453 70.6438 37.0843 70.9434 37.0843C70.9434 36.5311 70.3128 36.0247 69.6503 36.0708C68.9878 36.1163 68.2619 36.746 68.2619 37.6212C68.2619 38.7112 69.1139 39.7085 70.3442 39.7085C71.5585 39.7085 72.7888 39.2332 73.2465 38.0666L76.4018 30.085C76.9535 28.6891 77.7422 28.0594 78.6255 28.0899C79.4148 28.1048 79.7144 28.8878 79.5249 29.5636L77.1757 37.5303ZM95.7106 30.8998H96.0576L97.0037 27.5231H86.6413L85.5364 30.8998H85.9468C86.6567 29.4565 88.7864 28.0905 90.427 28.0451L87.5394 37.5303C87.1771 38.7729 86.6086 38.9885 85.2849 38.9885L85.1902 39.4793H91.4205L91.5159 38.9885C90.2376 38.9885 89.7492 38.7885 90.1281 37.5303L92.9664 28.0451C94.6057 28.0451 95.7106 29.3643 95.7106 30.8998ZM103.502 29.4572C103.802 28.4288 104.228 27.9536 105.411 27.9536L105.553 27.5238H99.9367L99.7632 27.9536C101.026 27.9536 101.246 28.3366 100.931 29.4572L98.5803 37.531C98.1713 38.9891 96.4993 39.0346 96.4993 39.0346L96.4038 39.4799H102.019L102.161 39.0346C101.136 39.0346 100.711 38.6509 101.073 37.6225L107.398 30.7004L105.41 37.531C105.111 38.5593 104.638 39.0346 103.454 39.0346L103.359 39.4799H108.989L109.1 39.0346C107.886 39.0346 107.617 38.6665 107.932 37.531L110.33 29.4572C110.646 28.3671 111.103 27.9536 112.366 27.9536L112.523 27.5238H106.893L106.751 27.9536C107.633 27.9536 107.965 28.1061 107.886 28.9196V29.1657L101.576 35.9345L103.502 29.4572ZM118.566 29.4572C118.866 28.4593 119.071 27.999 120.254 27.9536L120.349 27.5238H114.985L114.828 27.9536C116.09 27.9536 116.311 28.2756 115.964 29.4572L113.582 37.531C113.283 38.6048 112.746 39.0346 111.547 39.0346L111.437 39.4799H117.084L117.226 39.0346C115.996 39.0346 115.885 38.5282 116.169 37.531L117.115 34.3997L118.125 33.5557L120.334 37.6231C120.65 38.2062 120.239 38.9891 119.498 38.9891L119.34 39.4183H124.529L124.671 38.9891C123.725 38.8963 123.457 38.2678 123.079 37.531L120.16 31.8976L123.299 29.2579C124.04 28.6443 124.703 27.9996 125.743 27.9536L125.886 27.5238H121.864L121.722 27.9536C123.252 27.9536 122.291 29.1507 121.754 29.5805L117.526 32.926L118.566 29.4572ZM133.678 37.4381C133.614 38.4516 133.299 38.9891 132.29 38.9891L132.148 39.4799H136.926L137.069 38.9891C136.044 38.9891 136.138 38.2522 136.187 37.531L136.975 27.2777C136.265 27.5848 135.288 27.9685 134.482 28.0458L128.126 37.2849C127.622 38.0218 126.958 38.8359 125.997 38.9891L125.855 39.4799H129.467L129.625 38.9891C128.095 38.9891 128.773 37.9452 129.23 37.2395L130.035 36.0416H133.789L133.678 37.4381ZM134.23 30.3622L133.835 35.1665H130.68L133.93 30.4232L134.23 30.3622ZM49.336 33.1253C50.5816 33.1253 51.7172 33.7544 51.7172 35.0288C51.7172 37.0544 49.9818 38.8041 47.9789 38.8041C47.6473 38.8041 47.4111 38.4821 47.5058 38.1594L48.941 33.1253H49.336ZM46.4964 27.5231L46.4016 27.7835C45.2974 28.1821 44.1298 28.5048 42.9789 28.4437C40.4868 28.3515 38.1203 26.97 35.6123 27.0005C33.3251 27.0466 30.6596 28.5515 29.8863 30.8686C31.1794 29.9168 33.167 29.0423 34.887 28.9806C37.395 28.904 39.7449 30.27 42.2536 30.3317C43.8622 30.3622 45.9919 29.3955 46.8753 27.9984C47.8534 28.1211 47.7427 28.7196 47.5379 29.4565L45.1559 37.5303C44.825 38.6807 44.352 39.0339 43.0583 39.0339L42.9475 39.4793H49.0357C51.3703 39.4793 54.32 38.0672 54.32 35.5657C54.32 33.2792 51.7806 32.4495 49.8404 32.4495H49.1939L50.4242 28.1827H51.0707C53.4206 28.1827 54.6196 28.6125 55.2981 30.8387H55.645L55.2667 27.5238H46.4964V27.5231ZM34.1611 31.6671C36.6691 31.6366 39.035 33.0175 41.543 33.1097C42.9468 33.1714 44.3506 32.6955 45.6757 32.1742C45.0292 33.8317 42.5999 35.0593 40.8171 35.0133C38.3091 34.9516 35.9432 33.5862 33.4505 33.6473C31.7151 33.6934 29.8383 34.553 28.4505 35.5508C29.1771 33.2785 31.8112 31.7126 34.1611 31.6671ZM32.7259 36.3487C35.2179 36.3175 37.5838 37.6991 40.0919 37.7913C41.4957 37.853 42.8995 37.3771 44.2405 36.8551C43.578 38.5132 41.1647 39.7409 39.3666 39.6948C36.8746 39.6331 34.4927 38.2522 32 38.3288C30.2493 38.3912 28.3878 39.2352 27 40.2324C27.7413 37.9594 30.36 36.3942 32.7259 36.3487Z"
            fill="white" />
        <path fill-rule="evenodd" clip-rule="evenodd"
            d="M56.4023 40.2778L55.992 39.8792H59.6356L60.0453 40.2778H56.4023ZM137.59 27.6919L138 28.0756L137.29 37.5764C137.275 37.9445 137.259 38.436 137.495 38.758C136.944 38.2055 136.769 38.1139 136.833 37.3771L137.59 27.6919ZM133.173 40.2778L132.763 39.8792H137.542L137.952 40.2778H133.173ZM132.494 34.7983L131.958 34.6445L133.393 32.5118L133.282 33.6622L132.494 34.7983ZM129.75 38.6963C129.055 38.1743 130.381 36.8544 130.649 36.4558H133.094V36.8395H131.06C130.76 37.2849 129.561 38.4976 130.176 39.1111L129.75 38.6963ZM126.879 40.2778L126.469 39.8792H130.097L130.507 40.2778H126.879ZM120.364 40.2311L119.954 39.8324H125.143L125.553 40.2311H120.364ZM121.122 28.7819C120.316 28.8586 120.017 29.104 119.701 29.872L119.402 30.8692L118.724 31.4061L119.182 29.8408C119.182 29.8558 119.481 28.4749 120.869 28.3671L121.122 28.6125L121.295 28.7657C121.231 28.7657 121.169 28.7819 121.122 28.7819ZM121.122 32.465C121.058 32.3579 121.011 32.2508 120.948 32.1436L121.122 31.9898L123.897 29.5649C124.544 28.9975 125.459 28.4294 126.358 28.3677L126.768 28.7664C125.9 28.8281 125.034 29.365 124.402 29.8876L121.563 32.3897L124.67 38.56C124.308 38.56 124.055 38.2068 123.929 37.9302C122.984 36.1128 122.048 34.2911 121.122 32.465ZM118.267 34.9976L118.093 35.1509L117.225 38.1743C117.179 38.3438 117.179 38.4509 117.179 38.6502C116.768 38.6197 116.626 38.3275 116.689 38.0516L117.699 34.7516L117.983 34.5218L118.267 34.9976ZM112.461 40.2778L112.052 39.8792H117.699L118.094 40.2778H112.461ZM109.402 38.6048L108.897 38.5593C108.393 38.5593 108.771 37.4232 108.882 37.07L111.105 29.6876C111.405 28.6281 112.004 28.3677 113.093 28.3677L113.502 28.7664C112.525 28.7664 111.878 28.8891 111.562 29.8876L109.339 37.2699C109.275 37.5303 108.913 38.4204 109.402 38.6048ZM104.528 30.2706L103.676 32.926L102.918 33.7089L104.181 29.6876C104.259 29.3805 104.386 29.1195 104.528 28.9358C104.875 28.4898 105.396 28.3677 106.169 28.3677L106.578 28.7664C105.617 28.7664 104.97 28.8891 104.654 29.8876L104.528 30.2706ZM104.528 35.7956L102.098 38.4353C101.91 38.4353 101.499 38.3431 101.688 38.036L104.528 34.8899L106.137 33.0935L105.711 34.5211L104.528 35.7956ZM104.528 40.2778H104.402L103.975 39.8792H109.607L110.016 40.2778H104.528ZM97.4293 40.2778L97.019 39.8792H102.634L103.045 40.2778H97.4293ZM96.8769 31.6976H96.7348L96.3258 31.3139H96.6727L96.8776 30.5771L97.6188 27.9373L98.0292 28.321L97.0831 31.6976H96.8769ZM93.5802 28.4437L93.9906 28.843L91.3885 37.714C91.3091 37.9906 91.2464 38.1438 91.3418 38.4353C91.0095 38.3736 90.6319 38.297 90.7099 38.0055L93.5802 28.4437ZM86.215 40.2778L85.8047 39.8792H92.035L92.4453 40.2778H86.215ZM86.9562 31.6976L86.5613 31.3139C87.1297 30.3005 88.4221 29.2423 89.5897 28.7352L89.2901 29.4565C88.292 29.9498 87.4763 30.733 86.9562 31.6976ZM81.0722 38.6048L80.5671 38.5593C80.0467 38.5593 80.441 37.4082 80.5511 37.07L82.7595 29.6876C83.0751 28.5976 83.6269 28.3677 84.7311 28.3677L85.1415 28.7664C84.1954 28.7664 83.5168 28.8891 83.2172 29.8876L81.0088 37.2699C80.8987 37.6686 80.7092 38.2522 81.0722 38.6048ZM77.145 40.2778H76.0094L75.5991 39.8792H81.3251L81.7354 40.2778H77.145ZM71.4191 37.9594C71.2456 38.0055 71.1035 38.0977 71.1195 38.2672C70.962 38.2977 70.6932 38.2211 70.6618 38.0367C70.6144 37.6692 70.9614 37.5614 71.4191 37.4998C71.4665 37.4998 71.5138 37.4848 71.5612 37.4848L71.9709 37.8997C71.8761 37.899 71.6239 37.899 71.4191 37.9594ZM71.4191 40.3388C71.1195 40.3083 70.914 40.2622 70.8826 40.246C71.0401 40.2311 71.2296 40.2006 71.4191 40.185C72.3025 40.0467 73.3593 39.7091 73.7536 38.6956L77.145 30.1466L77.3185 29.7175C77.4446 29.3637 78.1545 28.4125 78.7063 28.4885C78.2966 29.2104 78.0124 29.3637 77.5233 30.6381L77.145 31.6048L74.4162 38.6035C73.769 40.2622 72.2551 40.4005 71.4191 40.3388ZM67.1283 27.6919L67.5386 28.0756L66.9395 37.4693C66.9395 37.7763 66.8921 38.4665 67.0502 38.758C66.4511 38.4665 66.4037 38.1139 66.4511 37.3771C66.6239 34.1381 66.8761 30.9153 67.1283 27.6919ZM62.7114 40.2778L62.3011 39.8792H67.0809L67.4913 40.2778H62.7114ZM62.0495 34.7983L61.4971 34.6445L62.9483 32.5118L62.8222 33.6622L62.0495 34.7983ZM59.3047 38.6963C58.7055 38.3126 59.9512 36.7778 60.1567 36.4558H62.6327V36.8395H60.5977C60.3468 37.2213 59.2046 38.5918 59.7077 39.0735L59.3047 38.6963ZM56.6705 31.6366L56.2602 31.2523L55.8659 27.9373L56.2762 28.321L56.6705 31.6366ZM53.4366 29.4104C53.105 29.2267 52.7421 29.0118 52.3484 28.9962H51.433L50.5977 31.9735L50.0612 31.943L51.0394 28.6119C52.3324 28.6125 52.5853 28.582 53.4366 29.4104ZM49.6195 35.1359L48.7048 38.3593C48.4366 38.3593 48.2157 38.2827 48.2625 37.9912L49.5562 33.5557H49.6189C50.1239 33.5557 50.7551 33.8011 50.9753 34.2764C50.8339 34.1842 50.1393 33.9388 49.9658 33.9388L49.6195 35.1359ZM49.6195 40.2778C49.4147 40.2927 49.1939 40.2927 48.973 40.2927L44.0044 40.2778L43.5627 39.8941H44.0044L48.8943 39.8792C49.1311 39.8792 49.3834 39.8636 49.6195 39.848C52.3804 39.6643 54.9825 38.3743 54.9825 35.2281C55.0933 35.5047 55.2507 35.9806 55.3455 36.3792C55.0773 37.9757 53.863 40.0778 49.6195 40.2778ZM32.1108 39.1423C34.2245 39.1423 36.8586 40.431 38.9883 40.4466C40.1713 40.4622 41.8273 39.9097 43.0109 39.5877C42.3484 40.2473 40.4081 41.0147 38.8936 40.9997C36.7805 40.9997 33.6567 39.5877 31.559 39.6033C30.0765 39.6033 29.5561 39.9103 28.4038 40.4167C29.3346 39.4643 30.7857 39.1423 32.1108 39.1423ZM44.0044 31.2224C43.2945 31.4678 42.4898 31.6373 41.7806 31.6373C39.6515 31.6373 36.5597 30.2096 34.43 30.2245C32.9628 30.2245 32.4424 30.5466 31.2748 31.0536C32.2369 30.0707 33.6887 29.7792 34.9978 29.7792C37.1275 29.7792 39.7456 31.0685 41.8753 31.0841C42.5065 31.0841 43.2638 30.9309 44.005 30.7309C44.6836 30.5621 45.3301 30.3628 45.8979 30.194C45.5343 30.5465 44.8244 30.9302 44.0044 31.2224ZM44.0044 35.2431C43.137 35.7962 41.5911 36.3338 40.3447 36.3175C38.215 36.3175 35.0919 34.9055 32.9942 34.921C31.5116 34.921 30.9912 35.2281 29.8396 35.7345C30.7704 34.7828 32.2369 34.4607 33.5466 34.4607C35.6757 34.4607 38.2944 35.7495 40.4402 35.7657C41.465 35.7806 42.8848 35.3508 44.005 35.0288C44.1625 34.9827 44.3206 34.936 44.4627 34.9061C44.3353 35.0126 44.1932 35.1359 44.0044 35.2431Z"
            fill="white" />
    </symbol>
    <symbol viewBox="0 0 165 67" id="bosch">
        <path
            d="M56.5448 31.8171C56.4871 31.7943 56.4177 31.7714 56.4177 31.7029C56.4177 31.6571 56.4408 31.6229 56.4871 31.6C56.5679 31.5657 58.5669 30.8571 58.5669 28.5257C58.5669 25.9314 56.799 24.3886 53.8179 24.3886H46.5962V39.6343H54.4765C56.7759 39.6343 59.2486 38.0229 59.2486 35.4286C59.2486 32.9486 57.3537 32.08 56.5448 31.8171ZM50.2359 27.5086C50.2359 27.4514 50.2822 27.4057 50.3399 27.4057H53.2055C54.153 27.4057 54.8001 28.0343 54.8001 28.9714C54.8001 29.7029 54.2223 30.4914 53.1362 30.4914H50.3399C50.2822 30.4914 50.2359 30.4457 50.2359 30.3886V27.5086ZM53.2055 36.6286H50.3399C50.2822 36.6286 50.2359 36.5829 50.2359 36.5257V33.4857C50.2359 33.4286 50.2822 33.3829 50.3399 33.3829H53.1362C54.5112 33.3829 55.2969 33.9657 55.2969 34.9943C55.2969 36.0571 54.569 36.6286 53.2055 36.6286ZM83.6407 30.4571L83.0861 30.3429C81.8382 30.08 80.6249 29.7486 80.6249 28.6857C80.6249 27.6229 81.6302 27.1429 82.6239 27.1429C83.7909 27.1429 84.9464 27.6571 85.8245 28.5486L88.1124 26.3086C87.1302 25.2343 85.3855 24 82.5661 24C79.169 24 76.8812 25.9086 76.8812 28.7543C76.8812 31.76 79.273 32.8914 81.2835 33.3143L81.8266 33.4286C83.7794 33.84 84.7037 34.1486 84.7037 35.2457C84.7037 36.2286 83.814 36.88 82.4968 36.88C80.9484 36.88 79.5734 36.2057 78.5335 34.9371L76.1879 37.2114C77.4358 38.6743 79.0881 40 82.543 40C85.4895 40 88.4821 38.3086 88.4821 35.0629C88.4706 31.7371 86.1827 30.9829 83.6407 30.4571ZM114.087 24.3886V29.9657C114.087 30.0229 114.041 30.0686 113.983 30.0686H109.246C109.188 30.0686 109.142 30.0229 109.142 29.9657V24.3886H105.26V39.6343H109.142V33.6457C109.142 33.5886 109.188 33.5429 109.246 33.5429H113.983C114.041 33.5429 114.087 33.5886 114.087 33.6457V39.6343H117.993V24.3886H114.087ZM97.4486 36.5143C95.7038 36.5143 93.8204 35.0743 93.8204 31.9086C93.8204 29.0171 95.5883 27.5086 97.3331 27.5086C98.6041 27.5086 99.4938 28.0343 100.199 29.2L103.18 27.2457C101.655 25.0286 99.8404 24.0229 97.31 24.0229C92.353 24.0229 90.1345 27.9886 90.1345 31.9086C90.1345 36.6743 93.0694 40 97.2637 40C100.384 40 101.805 38.8686 103.295 36.7771L100.291 34.7771C99.6209 35.8514 98.893 36.5143 97.4486 36.5143ZM67.9725 24C63.7319 24 60.8894 27.2114 60.8894 32C60.8894 36.7886 63.7319 40 67.9725 40C72.2131 40 75.0555 36.7886 75.0555 32C75.0555 27.2114 72.2131 24 67.9725 24ZM67.9725 36.5143C65.8926 36.5143 64.5523 34.7429 64.5523 32C64.5523 29.2686 65.8926 27.5086 67.9725 27.5086C70.0639 27.5086 71.4158 29.2686 71.4158 32C71.4158 34.7429 70.0639 36.5143 67.9725 36.5143Z"
            fill="white" />
    </symbol>
    <symbol viewBox="0 0 165 67" id="gaz">
        <path fill-rule="evenodd" clip-rule="evenodd"
            d="M43.0159 27H91.6216L97.5558 37.6835H106.711L106.717 34.2744H104.193L105.963 30.9859H96.8082L96.8111 27H121.323L121.33 27.8057L118.844 32.577L122 32.5672V40.7995H82.8895L82.198 39.3722H74.9165L74.3629 40.811H69.4993L73.1727 31.0035L59.4683 31.0123V40.7995H43L43.0159 27ZM80.6758 36.4042L78.0287 31.0576L76.0245 36.4042H80.6758Z"
            fill="white" />
    </symbol>
    <symbol viewBox="0 0 165 67" id="kamaz">
        <path
            d="M50.0005 26.0026C51.606 26.0083 53.2119 26.0036 54.8179 26.0053C54.8152 27.3662 54.8175 28.7272 54.8166 30.0882C54.8227 30.5459 54.8047 31.0042 54.8267 31.4619L54.8274 31.4725C54.8305 31.4702 54.8362 31.4654 54.8393 31.4628C55.1243 31.2147 55.379 30.9329 55.6398 30.6594C56.9385 29.3547 58.2109 28.0249 59.5065 26.7172C59.7438 26.4858 59.9626 26.2375 60.199 26.0057C61.706 26.0009 63.2135 26.0123 64.7206 26C63.1657 27.5549 61.6076 29.1062 60.0489 30.6572C61.0718 33.1993 62.0738 35.7506 63.0892 38.2961C63.1513 38.4192 63.1657 38.5728 63.2665 38.673C64.6623 34.4521 66.0464 30.2267 67.433 26.0031C68.6323 26.0074 69.832 26.0053 71.0315 26.0039C72.3616 30.0301 73.7001 34.0536 75.0308 38.0794C75.058 38.1445 75.058 38.2285 75.1236 38.2733C75.1304 34.1834 75.1271 30.093 75.1248 26.0026C77.0695 26.0088 79.0139 26.0026 80.9586 26.0057C81.6485 28.3327 82.3531 30.6559 83.0482 32.9811C83.236 33.6294 83.4505 34.2704 83.6189 34.9243C83.6802 34.8553 83.7026 34.766 83.7302 34.6816C84.6861 31.7881 85.653 28.8983 86.6059 26.0039C88.463 26.0061 90.3202 26.0061 92.1774 26.0039C92.1691 30.0728 92.1806 34.1421 92.1717 38.2109C92.1871 38.2118 92.2174 38.2131 92.2326 38.2134C92.5608 37.1485 92.9303 36.0958 93.2713 35.0346C94.0544 32.6725 94.827 30.3067 95.6118 27.945C95.8157 27.2972 96.0463 26.6579 96.2443 26.0083C97.4478 26.0004 98.6516 26.0074 99.8554 26.0053C101.179 30.0869 102.519 34.1632 103.847 38.2434C103.957 38.5644 104.049 38.8916 104.171 39.2086C105.637 35.726 107.091 32.2389 108.548 28.7523C107.069 28.754 105.59 28.7505 104.111 28.754C104.112 27.8372 104.115 26.9208 104.109 26.0039C107.739 26.0061 111.37 26.0053 115 26.0044C113.201 30.4167 111.419 34.8359 109.626 39.2508C111.414 39.2473 113.202 39.253 114.99 39.2482C114.982 39.9622 114.948 40.676 114.933 41.3906C114.914 41.5832 114.954 41.7846 114.89 41.9719C113.712 41.9508 112.536 41.9872 111.36 41.9789C110.15 41.9754 108.939 41.9811 107.73 41.9886C105.237 41.9842 102.745 42.0044 100.254 41.9974C100.064 41.4046 99.8658 40.8141 99.6781 40.2205C98.0895 40.2196 96.5012 40.2187 94.9131 40.2209C94.7207 40.8136 94.5232 41.4046 94.3332 41.9982C92.0155 41.9982 89.6978 41.9948 87.3802 42C87.3833 39.1386 87.3863 36.2769 87.3789 33.4156C87.3671 33.4284 87.3439 33.4539 87.332 33.4666C86.4676 36.3117 85.5939 39.1541 84.7312 41.9991C83.4396 41.9952 82.1478 41.9978 80.8562 41.9982C80.092 39.6009 79.3321 37.2021 78.5692 34.8047C78.4322 34.3347 78.2514 33.8769 78.1393 33.4011L78.0882 33.4007C78.093 36.2669 78.0856 39.1334 78.0921 42C75.8637 41.9938 73.6353 41.9991 71.4071 41.9974C71.2302 41.4011 71.0213 40.8145 70.8388 40.22C69.2491 40.22 67.6593 40.2191 66.0696 40.2205C65.8709 40.8118 65.6826 41.4068 65.4843 41.9987C63.3589 41.9965 61.2334 41.9969 59.1082 41.9987C58.1252 39.461 57.1399 36.9246 56.1585 34.387C55.7463 34.7633 55.3685 35.1772 54.9553 35.5541C54.904 35.6146 54.8121 35.6631 54.8179 35.755C54.8156 37.8358 54.817 39.9165 54.8175 41.9974C53.2115 41.9991 51.606 41.9938 50 42C50.0044 36.6674 50.0039 31.3353 50.0005 26.0026ZM68.4323 32.9504C67.9618 34.4617 67.4435 35.9581 66.9707 37.4686C67.9596 37.4668 68.9483 37.4717 69.9372 37.466C69.5016 36.1389 69.0683 34.8113 68.631 33.4851C68.5636 33.3074 68.5388 33.1087 68.4323 32.9504ZM97.2689 32.968C97.1604 33.3743 97.0128 33.7687 96.8898 34.1711C96.5331 35.269 96.1759 36.3671 95.8224 37.4663C96.8076 37.4686 97.7933 37.4731 98.7785 37.4642C98.2857 35.9665 97.7937 34.4683 97.3123 32.9671L97.2689 32.968Z"
            fill="white" />
    </symbol>
    <symbol viewBox="0 0 165 67" id="lada">
        <path fill-rule="evenodd" clip-rule="evenodd"
            d="M48 33.5C48 26.0441 63.4457 20 82.5 20C101.554 20 117 26.0441 117 33.5C117 40.9559 101.554 47 82.5 47C63.4461 47 48 40.9563 48 33.5ZM90.1948 34.6821C90.1901 34.6599 90.1787 34.6396 90.162 34.6239C90.1453 34.6082 90.1241 34.5978 90.1013 34.5941C89.1084 34.4521 88.1111 34.3408 87.111 34.2601C87.0521 34.2501 87.0105 34.1967 87.0494 34.0703C90.238 30.7881 91.4491 26.6117 89.8369 23.3441C89.8387 23.3292 89.8435 23.3148 89.851 23.3017C89.8585 23.2886 89.8685 23.2771 89.8806 23.2678C89.8926 23.2586 89.9064 23.2517 89.9211 23.2476C89.9359 23.2436 89.9513 23.2424 89.9665 23.2442C100.939 24.5461 108.95 28.6453 108.95 33.5C108.95 39.4026 97.1086 44.1878 82.5004 44.1878C67.8922 44.1878 56.0499 39.403 56.0499 33.5C56.0499 28.3832 64.9503 24.1057 76.8373 23.0578C76.8951 23.0597 76.9438 23.1031 76.9469 23.1923L74.366 37.095C74.3178 37.3393 74.3254 37.591 74.3882 37.8321C74.451 38.0732 74.5676 38.2977 74.7295 38.4895C74.8914 38.6814 75.0946 38.8359 75.3247 38.9419C75.5548 39.048 75.806 39.1029 76.0603 39.1029L76.1526 39.1075C78.4546 38.9903 80.9283 38.2874 83.2648 36.9678C83.927 36.5939 84.5642 36.1793 85.1728 35.7266C85.1903 35.7125 85.2117 35.7039 85.2342 35.7017C85.2567 35.6996 85.2794 35.7041 85.2993 35.7146C86.0775 36.2215 86.5253 36.8149 86.5253 37.4497C86.5253 38.312 85.6988 39.0987 84.3392 39.6955C82.7597 40.3887 80.4604 40.8245 77.9003 40.8245C75.7307 40.8245 73.7485 40.5113 72.2106 39.9887C72.1957 39.9861 72.1804 39.9864 72.1657 39.9896C72.1509 39.9928 72.1369 39.9988 72.1245 40.0073C72.1122 40.0158 72.1016 40.0266 72.0935 40.0391C72.0854 40.0516 72.08 40.0656 72.0774 40.0801L71.8582 41.2588C71.8545 41.2868 71.8617 41.3152 71.8783 41.3383C71.895 41.3615 71.9199 41.3776 71.9482 41.3836C75.0763 42.0957 78.6738 42.5008 82.5028 42.5008C87.2658 42.5008 91.1281 40.9894 91.1281 39.126C91.1281 38.4008 90.5444 37.7295 89.5513 37.1799C88.6812 36.7626 88.1332 36.2215 88.2675 35.8588C88.407 35.4825 89.2394 35.4222 90.2282 35.6828C90.2843 35.6901 90.3385 35.657 90.3586 35.5586L90.1948 34.6821ZM82.5 26.1728C82.5 26.2458 82.4976 26.3184 82.4929 26.3895C82.6186 28.867 81.0528 32.1815 78.1918 34.9803C77.6239 35.5368 77.0191 36.0561 76.3813 36.5347C76.3561 36.5505 76.3256 36.5559 76.2964 36.5497C76.2367 36.5374 76.1978 36.4817 76.2084 36.4133L79.0124 21.3139C79.0109 21.286 78.9989 21.2596 78.9786 21.2399C78.9584 21.2201 78.9314 21.2084 78.9028 21.207C63.4489 21.918 51.4498 27.1504 51.4498 33.5C51.4498 40.3345 65.3513 45.8748 82.5 45.8748C99.649 45.8748 113.551 40.3345 113.551 33.5C113.551 26.6655 99.6494 21.1252 82.5 21.1252C81.9567 21.1252 81.4162 21.131 80.8741 21.1421C80.8484 21.1422 80.8235 21.1507 80.8033 21.1662C80.7831 21.1817 80.7687 21.2034 80.7625 21.2278L80.4345 22.9898C80.4266 23.037 80.4494 23.082 80.4895 23.1054C81.0896 23.3748 81.598 23.8071 81.9544 24.3508C82.3108 24.8945 82.5002 25.5269 82.5 26.1728Z"
            fill="white" />
    </symbol>
    <symbol viewBox="0 0 165 67" id="pocatom">
        <path
            d="M84.7778 31.4746C83.4639 32.8987 81.1899 33.0004 79.775 31.6781C78.36 30.3557 78.259 28.067 79.5729 26.6429C80.8867 25.2188 83.0597 25.1171 84.5251 26.3886C85.9906 27.711 86.1422 29.9488 84.8283 31.4238C84.8283 31.4746 84.7778 31.4746 84.7778 31.4746Z"
            fill="white" />
        <path
            d="M83.1105 16.8267C83.4137 17.1319 83.6664 17.3862 83.9191 17.7422C84.7781 18.7594 85.4856 19.9292 85.9909 21.1498C86.85 21.3024 87.7091 21.3533 88.5681 21.3533H88.7197H88.8713C91.1959 21.1498 93.3688 20.0818 94.9859 18.4034L95.188 18.1999C94.8848 17.793 94.5311 17.437 94.1773 17.081C88.2144 10.9777 78.7646 10.3166 71.9932 15.4026C77.1981 12.8596 80.8365 14.5888 83.1105 16.8267Z"
            fill="white" />
        <path
            d="M71.033 34.2211C71.134 33.8142 71.2351 33.4073 71.3867 33.0513C71.8415 31.7798 72.4984 30.5592 73.2564 29.4911C72.9532 28.6773 72.5995 27.9144 72.1447 27.1515L72.0436 26.9989C72.0436 26.9481 71.9931 26.8972 71.9426 26.8972C70.5782 24.9645 68.6073 23.5913 66.3333 23.0318L66.0301 22.981C65.8785 23.4387 65.6764 23.9473 65.5753 24.4559C63.4024 32.6444 67.5461 41.2398 75.2778 44.5966C70.5782 41.3416 70.275 37.2727 71.033 34.2211Z"
            fill="white" />
        <path
            d="M92.055 36.0517C91.6507 36.1534 91.2464 36.2551 90.8927 36.306C89.5788 36.5094 88.2144 36.5603 86.9005 36.4077C86.3447 37.0689 85.8393 37.7809 85.4856 38.5439L85.4351 38.6964L85.3845 38.849C84.4244 40.9851 84.2223 43.4264 84.8792 45.6643C84.8792 45.766 84.9297 45.8677 84.9803 45.9695C85.4856 45.8677 85.9909 45.766 86.4457 45.6643C94.5816 43.4264 99.8876 35.5431 98.877 27.1511C98.4222 32.8983 95.087 35.1871 92.055 36.0517Z"
            fill="white" />
        <path
            d="M71.993 15.4028C69.5169 17.1321 67.5461 19.5734 66.3838 22.4215C69.9717 23.1844 72.8521 25.8292 73.9638 29.3385C74.4186 29.0334 75.8841 27.9145 76.8442 24.7611C78.0065 20.9466 80.23 18.1493 83.1104 16.9286C83.1104 16.8269 79.4214 11.5883 71.993 15.4028Z"
            fill="white" />
        <path
            d="M83.6662 42.8672C83.6662 40.3242 84.6263 37.832 86.3444 35.9502V35.8993C85.9907 35.5433 84.7779 34.6278 81.6448 35.3399C77.8043 36.2554 73.5089 36.1028 71.0328 34.2209C71.0328 34.2209 68.3545 40.019 75.3281 44.5965C78.057 45.868 81.1395 46.3766 84.1715 46.0206C83.8178 45.0034 83.6662 43.9353 83.6662 42.8672Z"
            fill="white" />
        <path
            d="M95.6429 18.7087C93.7226 20.8957 90.9938 22.1164 88.1134 22.1164C87.3554 22.1164 86.5974 22.0147 85.89 21.8621H85.8394C85.6878 22.3707 85.5868 23.8965 87.7092 26.1852C90.3874 29.1351 92.4593 32.8988 92.055 36.0013C92.055 36.0013 98.3717 35.4418 98.8265 27.0498C98.5739 24.0491 97.4621 21.15 95.6429 18.7087Z"
            fill="white" />
        <path
            d="M68.1528 55.5824H67.2432V51.2593H68.7086C69.7698 51.2593 70.4773 51.717 70.4773 52.6834C70.4773 53.6497 69.7698 54.2092 68.6076 54.2092H68.1528V55.5824ZM68.1528 53.3954H68.6581C69.214 53.3954 69.5677 53.192 69.5677 52.7342C69.5677 52.2765 69.2645 52.073 68.7086 52.073H68.2033L68.1528 53.3954Z"
            fill="white" />
        <path
            d="M71.1338 53.3953C71.1338 51.9204 72.0434 51.1575 73.2057 51.1575C74.5195 51.1575 75.2775 52.0221 75.2775 53.3953C75.2775 54.9211 74.3679 55.6332 73.2057 55.6332C72.0434 55.6332 71.1338 54.8703 71.1338 53.3953ZM74.3174 53.3953C74.3174 52.429 73.8626 51.9712 73.2057 51.9712C72.5487 51.9712 72.1445 52.429 72.1445 53.3953C72.1445 54.3617 72.6498 54.8194 73.3067 54.8194C73.9637 54.8194 74.3174 54.4125 74.3174 53.3953Z"
            fill="white" />
        <path
            d="M79.4216 55.4294C79.0679 55.6329 78.6636 55.6837 78.2594 55.6837C77.1476 55.7854 76.1875 54.9208 76.0864 53.8019C76.0864 53.7002 76.0864 53.5984 76.0864 53.4967C76.0864 52.0218 76.9455 51.208 78.3604 51.208C78.7142 51.208 79.1184 51.2589 79.4216 51.4115L79.2195 52.1744C78.9668 52.0726 78.7142 52.0726 78.4615 52.0218C77.7035 52.0218 77.0971 52.6321 77.0971 53.395C77.0971 54.1579 77.7035 54.7682 78.4615 54.7682C78.7142 54.7682 78.9668 54.6665 79.2195 54.5648L79.4216 55.4294Z"
            fill="white" />
        <path
            d="M82.8072 54.4126H80.988L80.5837 55.5824H80.0278L81.6449 51.2593H82.2008L83.8178 55.5824H83.262L82.8072 54.4126ZM81.1396 53.904H82.605L81.8976 51.8696L81.1396 53.904Z"
            fill="white" />
        <path d="M85.6879 55.5824H85.132V51.7679H83.8687V51.2593H86.9512V51.7679H85.6879V55.5824Z" fill="white" />
        <path
            d="M87.5576 53.3953C87.5576 52.0221 88.3662 51.1575 89.4779 51.1575C90.7412 51.1575 91.4487 52.073 91.4487 53.3953C91.4487 54.8703 90.6402 55.6332 89.5284 55.6332C88.4167 55.6332 87.5576 54.7686 87.5576 53.3953ZM90.8423 53.3953C90.8423 52.2255 90.337 51.6661 89.4779 51.6661C88.7199 51.6661 88.1135 52.2255 88.1135 53.3953C88.1135 54.5651 88.6694 55.1246 89.5284 55.1246C90.3875 55.1246 90.8423 54.5143 90.8423 53.3953Z"
            fill="white" />
        <path
            d="M96.8049 55.5824H96.249L95.9963 52.1748L94.8846 55.5824H94.3287L93.2675 52.2256L93.0149 55.5824H92.459L92.8127 51.2593H93.4697L94.6319 54.9721L95.7942 51.2593H96.4511L96.8049 55.5824Z"
            fill="white" />
    </symbol>
    <symbol viewBox="0 0 165 67" id="rot-front">
        <path fill-rule="evenodd" clip-rule="evenodd"
            d="M71.9659 29.7142C72.3258 29.802 72.7162 29.8605 73.1379 29.9093C73.4464 29.1683 73.7549 28.4367 74.0527 27.6957C75.091 25.131 76.0985 22.5858 77.1676 20.002C75.9339 20.002 74.9059 20.08 74.0527 20.2166C73.2099 20.3531 72.5311 20.5482 71.9659 20.8112C70.3003 21.5912 69.6219 22.9175 68.8202 24.7997C68.4397 27.5006 69.355 29.0899 71.9659 29.7142ZM69.3241 37.2616C69.9819 35.4671 70.5269 33.9169 71.1744 32.1224C71.4315 32.1029 71.6989 32.1127 71.9659 32.1029C72.0482 32.1029 72.1407 32.0932 72.2333 32.0834C72.3978 31.6643 72.8191 30.7572 72.9939 30.3381H66.9078C66.6713 30.7575 66.4865 31.5083 66.25 31.9273C66.6305 31.9273 67.2369 31.9472 67.6174 31.9472C67.0723 33.517 66.4763 35.0481 65.9209 36.6084C65.8489 36.8227 65.7667 37.0376 65.6947 37.2616H69.3241ZM59.249 29.9775C60.1433 29.9971 61.0376 30.0361 61.9118 29.9971C63.3923 29.9385 64.7798 29.6361 65.9213 28.5928C66.6716 27.9201 67.3089 26.9255 67.7922 25.4822C67.9666 22.6151 67.1752 21.2209 65.9213 20.5576C65.1196 20.1381 64.1117 20.0211 63.0533 20.002C62.6728 20.9868 62.2923 21.9814 61.9122 22.976C61.029 25.3114 60.1412 27.6452 59.249 29.9775Z"
            fill="white" />
        <path fill-rule="evenodd" clip-rule="evenodd"
            d="M65.9215 34.5116C65.9626 34.4047 66.0037 34.2872 66.0449 34.1803C66.2403 33.1565 66.1683 32.3858 65.9215 31.8006C65.5307 30.8938 64.6874 30.4743 63.7009 30.3381C63.074 31.8204 62.5084 33.4393 61.9123 35.0188C61.6366 35.7719 61.3453 36.5198 61.0386 37.262C61.3471 37.262 61.6347 37.2523 61.9123 37.2328C63.9576 37.0763 65.2016 36.3451 65.9215 34.5116ZM80.8897 29.8703C81.7738 29.8703 82.5961 29.8898 83.367 29.8797C86.0807 29.8309 88.0655 29.3533 89.2067 25.872C90.3687 21.9326 88.1992 20.0016 85.0436 20.0016C84.4982 21.3474 83.9326 22.6732 83.3674 23.9995C82.5241 25.95 81.6812 27.8908 80.8897 29.8703ZM71.966 34.6969C71.6164 35.555 71.2774 36.4036 70.9278 37.2616H77.2089C79.3064 32.2692 81.3007 27.3738 83.367 22.4102C83.6961 21.6107 84.035 20.8109 84.3752 20.0016H83.367C81.5475 19.9919 79.7178 20.0309 77.8876 20.0016C76.6025 23.2097 75.3277 26.3594 74.0529 29.5289C73.3511 31.2493 72.6555 32.972 71.966 34.6969ZM61.9119 20.8503C62.0353 20.5674 62.1587 20.2849 62.2719 20.002H56.2063C53.8007 25.8041 51.4464 31.4599 49.0511 37.262H55.2297C57.5836 31.7717 59.5988 26.3301 61.9119 20.8503ZM62.7959 30.3381C62.5019 30.3152 62.207 30.3021 61.9119 30.2991C60.4931 30.3085 59.0439 30.7283 58.0052 33.0098C57.1212 35.9057 58.3137 37.0272 60.1023 37.2616C60.7293 35.7891 61.3155 34.1312 61.9119 32.5517C62.1917 31.8085 62.4864 31.0705 62.7959 30.3381ZM85.4024 30.3381C84.7858 31.8302 84.056 33.5466 83.367 35.1749C83.0568 35.8934 82.7553 36.6151 82.4624 37.3401C82.7507 37.301 83.0486 37.2913 83.367 37.2815C84.6216 37.2523 86.061 37.1941 87.5616 34.7461C88.0754 31.7229 87.1507 30.4162 85.4024 30.3381ZM108.226 31.5184H109.438C108.74 33.3223 108.236 35.3017 107.547 37.1153L107.486 37.262H111.217C111.967 35.4387 112.256 33.4296 113.017 31.6062C113.325 31.6062 114.065 31.5965 114.373 31.5965C114.61 31.2063 114.703 30.7287 114.939 30.3385H108.719C108.616 30.7283 108.328 31.1282 108.226 31.5184ZM107.599 30.3381H107.547C106.426 30.3674 105.254 30.2991 104.144 30.3381C103.691 31.4404 103.352 32.6687 102.91 33.7804H101.717C101.645 34.1706 101.225 34.9213 101.163 35.3115L101.934 35.3212H102.314C102.211 35.6818 102.068 36.072 101.934 36.4524C101.831 36.7255 101.738 36.9983 101.666 37.2616H105.49C106.19 35.0383 106.838 32.737 107.547 30.5137C107.557 30.4552 107.578 30.3966 107.599 30.3381ZM107.547 20.3528H94.3166C93.7411 21.718 93.1347 23.0833 92.5481 24.4482C91.8488 26.0573 91.1606 27.647 90.5535 29.1972H115.309C116.44 26.3012 117.858 23.2491 119 20.3528H107.547ZM102.705 30.3381H98.7367C98.0584 32.2298 97.3385 34.336 96.6503 36.2963C96.5367 36.628 96.424 36.9401 96.3113 37.2616H100.125C100.67 35.7696 101.328 34.0535 101.934 32.4151C102.201 31.6936 102.469 30.9917 102.705 30.3381ZM71.966 38.7245H48.5369L45 47.4031H70.8763L71.966 44.8774L74.0533 40.0019L74.5979 38.7245H71.966ZM96.6499 34.0437C97.102 32.8248 97.102 31.8887 96.6499 31.2547C96.2591 30.7182 95.5289 30.3966 94.4598 30.2893C93.925 31.7424 93.2059 33.2735 92.5478 34.775C92.192 35.5689 91.8595 36.3721 91.5506 37.1836C91.8797 37.2226 92.2187 37.2418 92.5478 37.2519C94.1825 37.2616 95.7864 36.706 96.6289 34.0925C96.64 34.0828 96.64 34.0633 96.6499 34.0437ZM84.2617 30.3381C83.9741 30.3381 83.6652 30.3479 83.367 30.3479C82.4624 30.3381 81.5376 30.3089 80.6738 30.3381C78.988 34.4047 77.3018 38.9289 75.6263 43.0052C76.7572 43.0638 77.9908 42.9857 79.1217 43.0442C80.5401 39.6118 81.9589 36.0329 83.367 32.5419C83.6652 31.8009 83.9634 31.0697 84.2617 30.3381ZM93.535 30.3869C93.2077 30.3468 92.8777 30.3305 92.5478 30.3381C90.3893 30.3771 88.7957 31.401 88.3737 33.4101C87.8389 35.809 88.8266 37.6128 90.8003 37.262C91.3659 35.8285 91.9624 34.3465 92.5478 32.8739C92.8768 32.035 93.2158 31.1965 93.535 30.3869Z"
            fill="white" />
    </symbol>
    <symbol viewBox="0 0 165 67" viewBox="0 0 165 67" id="rzd">
        <path
            d="M95.2968 21.5543V22.5937H104.194C104.788 22.5937 105.677 22.5937 106.262 23.1881C106.846 23.7825 106.855 24.6741 106.855 25.2595V34.1756C106.855 34.77 106.855 35.6617 106.262 36.2471C105.668 36.8415 104.779 36.8415 104.194 36.8415H99.8984C99.1578 36.8415 98.1926 36.8415 97.8313 36.0237C97.461 35.2059 97.9794 34.4638 98.4244 33.8622L104.212 26.1349H95.3148L91.7557 30.8902C91.1589 31.6863 90.6431 32.3762 90.6431 33.2678C90.6431 34.1594 91.123 34.8007 91.7557 35.6454L92.6455 36.8343C93.5352 38.0231 94.425 39.2119 95.6114 39.8063C96.7977 40.4007 98.1998 40.4007 100.141 40.4007H103.988C106.217 40.4007 109.542 40.4007 111.771 38.1672C114 35.9336 114 32.6734 114 31.4846V27.9181C114 26.7293 114 23.4691 111.771 21.2355C109.542 19.002 106.217 19.002 103.988 19.002L97.8403 19C97.2471 18.9998 96.5065 19 95.9169 19.5944C95.3238 20.1888 95.3238 20.9309 95.3238 21.5217"
            fill="white" />
        <path d="M84.6917 26.1653H93.4994L82.8942 40.4671H74.0864L84.6917 26.1653Z" fill="white" />
        <path
            d="M50 28.687C50 28.0926 50 27.3505 50.5932 26.7597C51.1864 26.1689 51.9269 26.1653 52.5165 26.1653H67.4178C69.3411 26.1653 70.7611 26.1653 71.9475 26.7597C73.1338 27.3541 74.0146 28.5429 74.9134 29.7317L75.8031 30.9206C76.434 31.7635 76.9158 32.4066 76.9158 33.2982C76.9158 34.1898 76.3999 34.8797 75.8031 35.6758L72.2441 40.4311H63.3464L69.1344 32.7038C69.5784 32.1094 70.0979 31.3673 69.7276 30.5423C69.3573 29.7245 68.3938 29.7245 67.6604 29.7245H60.6861V47.5568H53.568V29.7245H50.009V28.6834"
            fill="white" />
    </symbol>
    <symbol id="severstal">
        <path
            d="M60.7276 49.8333H58.4157L53.667 38.5362H56.9834L59.6565 45.7285H59.7036L62.3287 38.5362H65.455L60.7276 49.8333Z"
            fill="white" />
        <path
            d="M83.0726 41.4558C82.4994 41.1236 81.9526 41.0518 81.6415 41.0518C80.9736 41.0518 80.3536 41.2888 79.5657 41.9304V49.7629H76.3428V38.5358H79.0641L79.4221 39.699C80.45 38.7979 81.3299 38.2754 82.5239 38.2754C83.0726 38.2754 83.7422 38.4415 84.2412 38.7979L83.0726 41.4558Z"
            fill="white" />
        <path
            d="M87.8149 50C85.8817 50 84.4261 49.5483 83.3511 48.8842L84.3548 46.5586C85.3085 47.2218 86.4322 47.6026 87.5051 47.6026C88.6025 47.6026 89.2949 47.247 89.2949 46.582C89.2949 44.8019 84.0677 45.5146 84.0677 41.7169C84.0677 39.6516 85.7382 38.2755 88.4816 38.2755C89.987 38.2755 91.0364 38.4891 91.9659 38.8455V41.5034C90.941 41.0985 89.8436 40.7432 88.627 40.7432C87.6956 40.7432 87.1938 41.0033 87.1938 41.55C87.1938 43.0922 92.5146 42.523 92.5146 46.44C92.5146 49.0269 90.2244 50 87.8149 50Z"
            fill="white" />
        <path
            d="M97.5346 50C95.4334 50 94.6458 48.8133 94.6458 47.2938V41.3484H92.5698V38.8306H94.6458V35.9256L97.8683 34.9751V38.8306H101.4L100.764 41.3484H97.8683V46.0847C97.8683 46.9132 98.2013 47.317 98.9422 47.317C99.6327 47.317 100.349 47.01 100.779 46.7472L101.615 48.7424C100.327 49.6679 98.6545 50 97.5346 50Z"
            fill="white" />
        <path
            d="M108.348 44.6835L106.941 44.7303C105.557 44.7787 104.888 45.2536 104.888 46.1078C104.888 46.9607 105.508 47.5074 106.607 47.5074C107.465 47.5074 108.038 47.2218 108.348 46.9848V44.6835ZM109.136 49.7631L108.634 48.789C107.895 49.4542 106.894 50 105.436 50C103.289 50 101.669 48.5764 101.669 46.3429C101.669 43.9708 103.6 42.7366 106.462 42.6414L108.372 42.5715C108.372 42.523 108.372 42.4287 108.372 42.3804C108.372 41.1954 107.418 40.6964 106.298 40.6964C105.152 40.6964 104.171 41.0283 103.41 41.4559L102.429 39.5098C103.981 38.5106 105.461 38.2755 106.988 38.2755C109.996 38.2755 111.666 39.4856 111.666 42.4519V49.777L109.136 49.7631Z"
            fill="white" />
        <path d="M116.331 49.7771V31.7371L113.086 32.713V49.7771H116.331Z" fill="white" />
        <path
            d="M37.2586 50C34.9883 50 33.3671 49.2639 32 48.4318L33.4345 45.7562C34.5226 46.4887 36.0688 47.3161 37.0717 47.3161C38.1051 47.3161 39.4532 46.9794 39.4532 45.7881C39.4532 43.7235 35.7291 43.3542 33.8197 41.1954C33.2254 40.5071 32.8185 39.6283 32.8185 38.4174C32.8185 36.0451 34.7035 33.9544 38.1636 33.9544C39.8346 33.9544 41.2169 34.3828 42.1259 34.9052L42.0781 37.9007C40.7415 37.1889 39.472 36.5648 38.1823 36.5648C37.0133 36.5648 36.2423 37.0815 36.2423 37.9827C36.2423 40.6888 43.0074 40.4575 43.0074 45.3719C43.0074 48.2201 40.4779 50 37.2586 50Z"
            fill="white" />
        <path
            d="M70.0067 40.6308C68.7226 40.6308 67.9853 41.8118 67.9853 42.8306H72.0502C71.978 41.765 71.3844 40.6308 70.0067 40.6308ZM68.0565 45.0282C68.1278 46.5405 69.5535 47.4389 71.0505 47.4389C72.1441 47.4389 72.9778 47.227 74.2412 46.6357L74.9785 48.6691C73.4056 49.6376 71.8597 49.9697 70.5279 49.9697C66.4893 49.9697 64.8228 47.1309 64.8228 44.2008C64.8228 41.0329 66.7256 38.2892 70.1003 38.2892C73.1909 38.2892 75.3308 40.583 75.3308 44.0588C75.3308 44.2736 75.3308 44.6021 75.3308 45.0282H68.0565Z"
            fill="white" />
        <path
            d="M48.9642 40.6308C47.6802 40.6308 46.9449 41.8118 46.9449 42.8306H51.0099C50.9386 41.765 50.342 40.6308 48.9642 40.6308ZM47.0142 45.0282C47.0865 46.5405 48.5131 47.4389 50.011 47.4389C51.1046 47.4389 51.9355 47.227 53.2008 46.6357L53.9382 48.6691C52.3633 49.6376 50.8176 49.9697 49.4866 49.9697C45.4462 49.9697 43.7832 47.1309 43.7832 44.2008C43.7832 41.0329 45.6853 38.2892 49.0582 38.2892C52.1485 38.2892 54.2889 40.583 54.2889 44.0588C54.2889 44.2736 54.2889 44.6021 54.2889 45.0282H47.0142Z"
            fill="white" />
        <path
            d="M129.875 28.8495C130.082 28.7842 130.283 28.6762 130.478 28.5379C130.778 27.7693 131.056 26.9128 131.305 25.9614H131.304C131.632 24.7003 131.831 23.5621 131.928 22.5396C132.026 21.5022 132.019 20.5843 131.936 19.7745C131.846 18.9275 131.622 18.0636 131.114 17.5674C130.607 17.0711 129.737 16.8622 128.882 16.7894C128.699 16.7759 128.511 16.7661 128.318 16.76H127.412C127 16.7724 126.565 16.8018 126.109 16.851C126.329 16.9499 126.524 17.0711 126.685 17.2147C127.194 17.6793 127.432 18.4685 127.535 19.2428C127.61 19.8063 127.642 20.4257 127.619 21.1029C127.584 22.1981 127.407 23.4463 127.039 24.8624C126.755 25.9557 126.419 26.9035 126.051 27.7282C126.622 28.0772 127.167 28.3552 127.685 28.5679C128.412 28.8664 129.219 29.0567 129.875 28.8495Z"
            fill="white" />
        <path
            d="M117.846 26.5046C117.8 26.7154 117.794 26.9449 117.817 27.1839C118.335 27.8237 118.939 28.488 119.642 29.1763C120.58 30.0925 121.478 30.8313 122.324 31.4245C123.176 32.0235 123.976 32.4751 124.716 32.8127C125.494 33.1709 126.362 33.4005 127.048 33.212C127.733 33.0218 128.351 32.3741 128.842 31.6747C129.31 31.0085 129.763 30.2081 130.182 29.2546C129.983 29.3965 129.778 29.5084 129.567 29.5738C128.91 29.7809 128.104 29.5907 127.377 29.2921C126.849 29.0755 126.293 28.7939 125.713 28.4357C124.78 27.8573 123.781 27.0811 122.731 26.0569V26.055C121.923 25.2639 121.266 24.5027 120.732 23.7731C120.143 24.0887 119.63 24.4185 119.187 24.7584C118.564 25.2361 117.995 25.8347 117.846 26.5046Z"
            fill="white" />
        <path
            d="M125.896 17.2986C125.744 17.1606 125.556 17.0448 125.35 16.9499C124.524 17.0729 123.635 17.2596 122.672 17.5244C121.414 17.8715 120.325 18.2689 119.387 18.6961C118.443 19.1272 117.651 19.5878 116.991 20.06C116.288 20.5618 115.638 21.1927 115.458 21.8848C115.28 22.577 115.54 23.4408 115.909 24.2186C116.255 24.9501 116.725 25.7356 117.34 26.5676C117.316 26.3232 117.322 26.09 117.37 25.8755C117.518 25.2076 118.088 24.6067 118.709 24.129C119.161 23.784 119.683 23.4481 120.285 23.1272C121.255 22.6104 122.433 22.1384 123.851 21.7466C124.941 21.4462 125.931 21.2617 126.832 21.1662C126.852 20.4965 126.82 19.8827 126.745 19.3267C126.642 18.5524 126.405 17.7616 125.896 17.2986Z"
            fill="white" />
    </symbol>
    <symbol viewBox="0 0 165 67" id="vmz">
        <path fill-rule="evenodd" clip-rule="evenodd"
            d="M52.276 27.2524H56.0143C56.8893 27.2524 57.6051 27.1993 58.427 27.1993C60.1768 27.1993 61.529 27.1463 63.1463 27.1463C65.5324 27.1463 66.8315 27.0136 68.2632 28.1279C69.4033 29.03 69.8805 31.0729 69.0851 32.3995C68.767 32.9301 68.3162 33.1689 68.0511 33.5934C68.3428 33.8852 68.7935 34.0709 69.1912 34.6811C70.0131 35.9016 69.907 37.6261 69.2177 38.6078C68.5549 39.5894 67.7595 39.9078 66.5399 40.12C65.5589 40.3058 64.8961 40.3058 63.8886 40.3058C63.4379 40.3058 63.0402 40.3588 62.51 40.3588C58.374 40.3588 56.0143 40.4119 51.8253 40.4119C51.8783 40.5711 52.1965 40.8894 52.3556 41.0752C52.7002 41.4466 53.0449 41.818 53.4426 42.1364L54.0789 42.6936C54.6887 43.2242 55.7227 43.7548 56.4385 44.1262C57.446 44.6303 59.3814 45.1344 60.495 45.1344C62.669 45.1344 63.9947 44.9752 65.7975 44.0732C66.858 43.5426 67.8125 42.9589 68.6609 42.1099C69.0321 41.7119 68.7935 42.0303 69.3502 41.4201C70.2252 40.4384 71.2592 38.7139 71.6303 37.4934C71.7894 36.9363 72.1341 35.7954 72.1606 35.2648C72.2136 34.0179 72.3197 32.7178 71.975 31.4709C71.9485 31.3382 71.8955 31.2321 71.8689 31.0729C71.6568 30.1443 71.5508 29.9055 71.1266 28.9769C71.0471 28.7912 71.0471 28.7647 70.941 28.6055L70.3047 27.5708C70.1986 27.4116 70.1721 27.3851 70.0661 27.2259C69.801 26.7748 68.6344 25.6075 68.1837 25.2095C67.2292 24.387 65.6915 23.6176 64.4984 23.2197C62.0327 22.3972 59.3814 22.5829 57.1014 23.4054C56.6506 23.5646 56.1999 23.8033 55.7492 24.0156C55.6697 24.0687 55.6697 24.0687 55.5636 24.1217C54.4501 24.7319 52.9123 25.8993 52.1965 26.9871C52.117 27.0932 52.0639 27.2524 52.276 27.2524ZM61.1313 32.3729L65.0287 32.3199C65.8771 32.3199 66.699 32.1607 66.699 31.0994C66.699 30.7545 66.5399 30.5157 66.3808 30.33C66.1687 30.1178 65.9036 30.0647 65.5059 30.0647H61.1313V32.3729ZM61.6615 35.2648H61.2108V37.4404L65.2143 37.3873C67.5209 37.3077 66.9641 35.6628 66.2748 35.3444C65.5854 35.0526 62.563 35.2648 61.6615 35.2648ZM59.8057 20.0624C56.9688 20.2482 54.5561 20.991 51.8518 23.2462C51.6928 23.3788 51.6397 23.4584 51.4541 23.5911C50.7648 24.1217 49.7308 25.5279 49.2536 26.2707C48.6968 27.0932 47.5833 29.3484 47.5833 30.2504C49.1475 30.4096 53.6017 30.2504 55.6166 30.1974C56.5181 30.1974 57.4195 30.1974 58.3209 30.1974V32.5056C55.9613 32.5056 53.6282 32.6382 51.3216 32.6117H47V35.5567C50.8178 35.5567 54.5296 35.4505 58.374 35.4505V37.52C56.4916 37.52 48.034 37.5465 47.6363 37.7588C47.5303 37.9975 47.7424 38.422 47.8484 38.7139C48.087 39.4302 48.4317 40.1996 48.8029 40.8629C49.0945 41.3935 49.6778 42.2425 50.0225 42.6936C50.7383 43.5956 51.5867 44.365 52.5146 45.1079C52.7533 45.2936 52.9654 45.4263 53.2305 45.612C54.238 46.2753 55.2985 46.859 56.4916 47.2304C56.7832 47.3365 57.0748 47.4161 57.4195 47.5222C60.0178 48.2916 63.3849 48.1059 65.9301 47.1508C67.4943 46.5671 68.5549 45.8773 69.801 44.8957C70.4903 44.3385 70.3842 44.3916 71.0471 43.7283C71.1531 43.6222 71.2592 43.516 71.3652 43.4099C71.4713 43.2772 71.4978 43.2242 71.6303 43.0915C71.9485 42.7732 72.4257 42.0568 72.6908 41.6854C73.6719 40.2262 74.4672 38.2098 74.7589 36.4587C74.918 35.5567 74.8915 35.4505 74.9445 34.7607C75.1831 32.6382 74.6263 29.9321 73.7779 28.1545C72.9029 26.2973 72.1341 25.1299 70.7554 23.7503C70.5433 23.538 70.3577 23.3788 70.1191 23.1666C69.9865 23.0605 69.907 22.9809 69.7744 22.8747C69.6684 22.7686 69.5623 22.7156 69.4563 22.6094C68.0776 21.4951 65.3468 20.5931 64.3128 20.3808C62.8546 20.0624 62.2448 19.9033 59.8057 20.0624Z"
            fill="white" />
        <path fill-rule="evenodd" clip-rule="evenodd"
            d="M111.299 35.1809H113.28C114.845 35.1809 115.523 35.6347 115.523 37.0495C115.523 38.3842 114.845 38.8647 112.498 38.8647C111.56 38.8647 110.021 38.7312 109.213 38.491L108.77 40.5464C109.865 40.7867 111.664 41.0002 112.942 41.0002C116.409 41.0002 118 40.0926 118 37.3965C118 35.528 117.452 34.2733 115.158 34.1666C117.322 33.9797 117.739 32.8319 117.739 31.1768C117.739 28.9345 116.488 28.0002 112.942 28.0002C111.533 28.0002 109.891 28.2405 108.822 28.454L109.265 30.4828C110.021 30.2425 111.533 30.0824 112.472 30.0824C114.741 30.0824 115.262 30.4828 115.262 31.6039C115.262 32.8319 114.741 33.2056 113.176 33.2056H111.299V35.1809ZM100.008 36.222C98.9915 33.6327 97.74 30.6696 96.5927 28.2405H93.4376V40.7066H95.654V31.4438C96.723 33.8462 97.9746 37.1296 98.9133 39.5855H100.712C101.703 37.1296 103.007 33.9263 104.102 31.4438V40.7333H106.345V28.2405H103.346C102.251 30.643 100.973 33.6327 100.008 36.222ZM88.0141 34.1132C90.2044 33.9263 90.5433 32.8853 90.5433 31.2302C90.5433 29.415 89.9958 28.2405 87.5447 28.2405H81V40.7066H87.649C89.6047 40.7066 90.8041 39.7456 90.8041 37.2898C90.8041 35.4479 90.3347 34.22 88.0141 34.1132ZM83.2946 30.2425H87.0493C87.8316 30.2425 88.0923 30.6963 88.0923 31.7107C88.0923 32.645 87.8055 33.2056 87.0493 33.2056H83.3206V30.2425H83.2946ZM83.2946 35.1542H87.0754C87.9098 35.1542 88.327 35.8216 88.327 36.9961C88.327 38.1173 87.988 38.7579 87.1536 38.7579H83.2946V35.1542Z"
            fill="white" />
    </symbol>
    <symbol viewBox="0 0 165 67" id="volkswagen">
        <path fill-rule="evenodd" clip-rule="evenodd"
            d="M82.4997 14.9998C92.6789 14.9998 101 23.3203 101 33.5172C101 43.6967 92.6792 51.9998 82.4997 51.9998C72.3203 51.9998 64 43.6964 64 33.517C64 23.3203 72.3203 14.9998 82.4997 14.9998ZM70.1142 23.5635L76.7499 40.778L79.1817 34.4897H85.5568L87.9884 40.778L94.6937 23.355C93.5105 21.9275 92.088 20.7167 90.4898 19.7768L85.8347 32.5964H79.2683L74.596 19.7244C72.8762 20.7146 71.365 22.0176 70.1142 23.5635ZM97.3692 27.8889L89.8126 47.6048C94.8853 44.947 98.3763 39.6317 98.3763 33.5172C98.3763 31.5368 98.0292 29.6433 97.3692 27.8889ZM86.5121 48.89L86.4605 48.4904L82.3605 37.8595L78.2611 48.4904L78.2439 48.8207C79.5988 49.2025 81.0232 49.3938 82.4997 49.3938C83.8892 49.3938 85.2268 49.2202 86.5121 48.89ZM74.8738 47.4309L67.5088 28.2363C66.9182 29.8864 66.6054 31.6583 66.6054 33.517C66.6054 39.4925 69.9406 44.7382 74.8738 47.4309ZM82.4997 17.6226C83.8892 17.6226 85.2615 17.7965 86.5645 18.1436L82.5519 29.2437L78.5218 18.1264C79.821 17.7903 81.1577 17.621 82.4997 17.6226Z"
            fill="white" />
    </symbol>
</svg>