<svg width="35" height="35" viewBox="0 0 35 35" fill="none" xmlns="http://www.w3.org/2000/svg">
<path fill-rule="evenodd" clip-rule="evenodd" d="M15.5501 17.4708C15.3501 17.6708 15.1359 17.8481 14.9107 18.0024C15.2341 18.4277 15.5793 18.823 15.947 19.1906C16.3146 19.5583 16.7099 19.9035 17.1352 20.2269C17.2896 20.0017 17.4668 19.7875 17.6668 19.5875C19.4203 17.834 22.2633 17.834 24.0169 19.5875C25.0554 20.626 25.5269 22.0551 25.3353 23.4053C25.3193 23.4024 25.3513 23.4081 25.3353 23.4053L24.8151 26.3532C20.1412 25.5284 16.5046 23.9816 13.8303 21.3073C11.156 18.633 9.60923 14.9964 8.78442 10.3225L11.7323 9.8023C11.7295 9.7863 11.7352 9.81834 11.7323 9.8023C13.0825 9.61073 14.5116 10.0823 15.5501 11.1208C17.3036 12.8743 17.3036 15.7173 15.5501 17.4708ZM12.4192 12.7997C12.6955 13.7485 13.0138 14.6155 13.3763 15.4084C13.3957 15.3909 13.4147 15.3728 13.4334 15.3541C14.0179 14.7696 14.0179 13.8219 13.4334 13.2374C13.1524 12.9564 12.7874 12.8105 12.4192 12.7997ZM22.3379 22.7184C22.3271 22.3502 22.1812 21.9852 21.9002 21.7042C21.3157 21.1197 20.368 21.1197 19.7835 21.7042C19.7648 21.7229 19.7467 21.7419 19.7292 21.7613C20.5221 22.1238 21.3891 22.4421 22.3379 22.7184Z" fill="white"/>
</svg>
