<svg width="32" height="32" viewBox="0 0 32 32" fill="none" xmlns="http://www.w3.org/2000/svg">
<path fill-rule="evenodd" clip-rule="evenodd" d="M19.6531 22.2053C18.5192 22.8216 17.2197 23.1716 15.8384 23.1716C11.4201 23.1716 7.83838 19.5899 7.83838 15.1716C7.83838 10.7534 11.4201 7.17163 15.8384 7.17163C20.2567 7.17163 23.8384 10.7534 23.8384 15.1716C23.8384 17.2403 23.0532 19.1255 21.7647 20.5456L24.3907 23.1716L22.505 25.0572L19.6531 22.2053ZM21.1717 15.1716C21.1717 18.1171 18.7839 20.505 15.8384 20.505C12.8929 20.505 10.505 18.1171 10.505 15.1716C10.505 12.2261 12.8929 9.8383 15.8384 9.8383C18.7839 9.8383 21.1717 12.2261 21.1717 15.1716Z" fill="#CBCECF"/>
</svg>
