<svg width="32" height="32" viewBox="0 0 32 32" fill="none" xmlns="http://www.w3.org/2000/svg">
<path fill-rule="evenodd" clip-rule="evenodd" d="M20.4458 18.9682C21.8088 17.7476 22.6665 15.9742 22.6665 14.0004C22.6665 10.3185 19.6818 7.33374 15.9999 7.33374C12.318 7.33374 9.33321 10.3185 9.33321 14.0004C9.33321 15.9742 10.1909 17.7476 11.554 18.9683C9.54016 19.8929 7.86386 21.4263 6.76074 23.3329L9.07053 24.6664C10.4539 22.2756 13.039 20.6671 15.9999 20.6671C18.9607 20.6671 21.5459 22.2756 22.9292 24.6664L25.239 23.3328C24.1359 21.4263 22.4596 19.8929 20.4458 18.9682ZM19.9999 14.0004C19.9999 16.2095 18.209 18.0004 15.9999 18.0004C13.7907 18.0004 11.9999 16.2095 11.9999 14.0004C11.9999 11.7913 13.7907 10.0004 15.9999 10.0004C18.209 10.0004 19.9999 11.7913 19.9999 14.0004Z" fill="#CBCECF"/>
</svg>
