<svg width="132" height="125" viewBox="0 0 132 125" fill="none" xmlns="http://www.w3.org/2000/svg">
<path d="M23.304 38.2766L18.7908 44.2517L26.1766 49.8305L27.156 48.5339L20.8905 43.8012L23.4449 40.4195L29.7103 45.1522L30.6898 43.8555L23.304 38.2766Z" fill="#CBCECF"/>
<path d="M29.8191 31.7406C27.5772 33.4743 27.5857 36.1628 29.2478 38.3121C31.0133 40.5951 33.6333 41.0505 35.7312 39.4282C37.8188 37.8138 38.0474 35.1555 36.2819 32.8725C34.5243 30.5998 31.8861 30.1421 29.8191 31.7406ZM30.6335 32.8363C31.991 31.7865 33.6819 32.188 34.9782 33.8643C36.2744 35.5405 36.2536 37.2986 34.9167 38.3325C33.5387 39.3981 31.8478 38.9966 30.5276 37.2895C29.2473 35.6339 29.2863 33.8781 30.6335 32.8363Z" fill="#CBCECF"/>
<path d="M47.5008 28.6859C48.2054 30.8284 47.3484 32.8016 45.2106 33.6873C42.7966 34.6874 40.4749 33.5666 39.3553 30.8644C38.3503 28.4383 38.9817 25.7846 41.5759 24.7099C43.2813 24.0033 45.2547 24.2833 46.3639 26.1456L44.8747 26.7626C44.2426 25.8143 43.1842 25.5351 42.0793 25.9929C40.2777 26.7392 40.2168 28.6641 40.8686 30.2374C41.5254 31.8228 42.8937 33.1556 44.7192 32.3993C46.1124 31.8221 46.3658 30.6336 45.9995 29.3079L47.5008 28.6859Z" fill="#CBCECF"/>
<path d="M59.4473 20.7569L57.2015 21.0275L55.5895 28.5151L52.155 21.6355L49.8963 21.9076L51.0034 31.0971L52.5264 30.9137L51.6728 23.8279L55.1465 30.598L56.463 30.4394L58.1648 23.0458L59.0185 30.1315L60.5544 29.9465L59.4473 20.7569Z" fill="#CBCECF"/>
<path d="M68.6659 21.227C71.242 21.6649 72.6922 23.9158 72.2108 26.7482C71.7271 29.5934 69.6167 31.2258 67.015 30.7835C64.4005 30.3391 62.9608 28.1032 63.4445 25.258C63.8999 22.5794 65.872 20.7521 68.6659 21.227ZM68.4115 22.5684C66.7326 22.283 65.4145 23.4435 65.0637 25.5069C64.702 27.6343 65.552 29.1502 67.2694 29.4422C68.9355 29.7254 70.243 28.5499 70.5981 26.4609C70.9532 24.3718 70.1032 22.856 68.4115 22.5684Z" fill="#CBCECF"/>
<path d="M84.0498 26.3818L83.473 27.6618L80.7825 26.4495L77.5568 33.6083L76.0752 32.9407L79.301 25.7819L76.6105 24.5696L77.1873 23.2895L84.0498 26.3818Z" fill="#CBCECF"/>
<path d="M88.431 28.835L82.7956 36.1777L84.0847 37.1671L86.2534 34.3414L88.3262 35.9323C89.8113 37.072 91.3892 36.8737 92.4577 35.4815C93.637 33.9449 93.1336 32.4442 91.6177 31.2807L88.431 28.835ZM88.8969 30.8969L90.5779 32.187C91.3926 32.8123 91.904 33.598 91.1758 34.5468C90.5109 35.4131 89.6825 35.3181 88.8472 34.677L87.0528 33.2998L88.8969 30.8969Z" fill="#CBCECF"/>
<path d="M101.452 41.2726L100.395 42.1356L97.1973 38.2177L95.2937 39.7712L98.261 43.4071L97.2437 44.2373L94.2765 40.6014L92.1614 42.3275L95.4081 46.3058L94.3305 47.1853L90.0645 41.9581L97.2356 36.1058L101.452 41.2726Z" fill="#CBCECF"/>
<path d="M107.072 51.1933L105.811 51.8102L104.514 49.1593L97.4605 52.609L96.7465 51.1493L103.8 47.6995L102.504 45.0486L103.765 44.4317L107.072 51.1933Z" fill="#CBCECF"/>
<path d="M104.215 64.1847C105.989 63.7779 106.737 62.4459 106.283 60.4692L105.731 58.0617L109.178 57.2712L108.814 55.6874L99.7927 57.7566L100.708 61.748C101.159 63.712 102.428 64.5945 104.215 64.1847ZM103.813 62.6096C102.838 62.8334 102.224 62.4272 101.986 61.3882L101.448 59.044L104.439 58.3582L104.971 60.677C105.197 61.6653 104.764 62.3916 103.813 62.6096Z" fill="#CBCECF"/>
<path d="M111.13 72.7017L110.578 76.8905C110.317 78.8754 109.245 79.7439 107.879 79.564C106.99 79.4469 106.326 78.8088 106.119 77.9948C105.724 79.0048 104.847 79.5844 103.662 79.4283C102.038 79.2144 101.111 77.8861 101.337 76.1719L101.953 71.4933L111.13 72.7017ZM109.621 74.1027L107.095 73.77L106.806 75.9611C106.648 77.1598 106.904 77.8097 107.832 77.9319C108.979 78.0829 109.205 77.2604 109.326 76.3453L109.621 74.1027ZM105.935 73.6173L103.061 73.2388L102.743 75.649C102.601 76.7317 102.74 77.6678 103.912 77.8223C105.176 77.9886 105.483 77.0457 105.621 76.0017L105.935 73.6173Z" fill="#FF3E41"/>
<path d="M100.468 81.6147L109.047 85.0902L108.437 86.5963L101.858 83.9311L106.943 90.2832L106.235 92.0303L97.6564 88.5548L98.2666 87.0487L104.845 89.7139L99.7603 83.3618L100.468 81.6147Z" fill="#FF3E41"/>
<path d="M89.6016 96.4949L90.54 95.2325L92.3867 96.6052L95.9852 91.7642L94.1385 90.3915L95.077 89.1291L98.0504 91.3394L97.5153 92.0593C98.0981 93.3672 99.9031 95.3407 101.948 96.8608L103.096 97.7139L99.4971 102.555L93.1955 97.8706L92.575 98.7052L89.6016 96.4949ZM94.1649 96.5664L99.3398 100.413L101.023 98.1491L100.574 97.8157C98.7274 96.4429 97.0634 94.6066 96.4761 93.4573L94.1649 96.5664Z" fill="#FF3E41"/>
<path d="M90.8001 110.758L89.933 109.704L93.8389 106.491L92.2783 104.594L88.6536 107.575L87.8196 106.56L91.4443 103.58L89.7103 101.471L85.7442 104.733L84.8607 103.658L90.0718 99.3728L95.951 106.522L90.8001 110.758Z" fill="#FF3E41"/>
<path d="M83.3773 115.47C81.0094 116.575 78.5363 115.549 77.3215 112.945C76.1012 110.33 76.9087 107.787 79.3001 106.671C81.7034 105.55 84.1592 106.57 85.3795 109.185C86.5283 111.647 85.9455 114.272 83.3773 115.47ZM82.8237 114.222C84.3669 113.502 84.7911 111.798 83.9061 109.901C82.9936 107.946 81.4324 107.182 79.8538 107.919C78.3223 108.634 77.9154 110.344 78.8114 112.264C79.7074 114.185 81.2686 114.948 82.8237 114.222Z" fill="#FF3E41"/>
<path fill-rule="evenodd" clip-rule="evenodd" d="M57.646 59.5L76.3537 70.0001L57.646 80.5L57.646 59.5ZM60.646 64.7986L60.646 75.2014L70.5228 70.0001L60.646 64.7986Z" fill="#FF3E41"/>
</svg>
