<svg width="32" height="32" viewBox="0 0 32 32" fill="none" xmlns="http://www.w3.org/2000/svg">
<path fill-rule="evenodd" clip-rule="evenodd" d="M15.9998 6.66675C10.8452 6.66675 6.6665 10.8454 6.6665 16.0001C6.6665 19.8824 9.03688 23.211 12.4093 24.6178C13.4849 25.0664 14.6623 25.3196 15.8974 25.3329C15.9315 25.3332 15.9656 25.3334 15.9998 25.3334C16.034 25.3334 16.0682 25.3332 16.1023 25.3329C17.3373 25.3196 18.5148 25.0664 19.5904 24.6178C22.9628 23.2111 25.3332 19.8824 25.3332 16.0001C25.3332 10.8454 21.1545 6.66675 15.9998 6.66675ZM17.2451 17.3334C17.0694 18.6515 16.6371 19.8885 15.9998 20.9923C15.3626 19.8885 14.9302 18.6515 14.7546 17.3334H17.2451ZM19.9305 17.3334C19.7455 19.1014 19.1969 20.7613 18.3607 22.2367C20.4742 21.4362 22.0747 19.5921 22.5331 17.3334H19.9305ZM22.5331 14.6667H19.9305C19.7455 12.8987 19.1969 11.2389 18.3606 9.76349C20.4742 10.564 22.0746 12.408 22.5331 14.6667ZM17.2451 14.6667H14.7546C14.9302 13.3486 15.3626 12.1117 15.9998 11.0079C16.637 12.1117 17.0694 13.3486 17.2451 14.6667ZM12.0692 14.6667C12.2541 12.8987 12.8028 11.2389 13.639 9.76349C11.5255 10.564 9.92502 12.408 9.46653 14.6667H12.0692ZM9.46653 17.3334C9.92502 19.5921 11.5255 21.4362 13.639 22.2367C12.8028 20.7613 12.2541 19.1014 12.0692 17.3334H9.46653Z" fill="#CBCECF"/>
</svg>
